<!--?xml version="1.0" standalone="no"?-->

<svg xmlns="http://www.w3.org/2000/svg" width="236.000000pt" height="300.000000pt" viewBox="0 0 236.000000 300.000000" preserveAspectRatio="xMidYMid meet">
<g transform="translate(0.000000,300.000000) scale(0.100000,-0.100000)" fill="#0D0E0E" stroke="none">

<path style="position: relative;" class="node" id="node2" d="M1028 2246 c-131 -35 -216 -148 -217 -287 -1 -93 21 -158 74 -217
129 -143 353 -131 463 25 60 85 75 167 47 270 -16 57 -26 74 -79 128 -51 52
-71 64 -122 78 -70 20 -102 20 -166 3z"></path>
<path style="position: relative;" class="node" id="node3" d="M1053 1550 c-18 -11 -33 -24 -33 -29 0 -5 14 -22 30 -38 17 -15 30
-37 30 -48 0 -11 -12 -107 -26 -212 l-27 -193 39 -47 c22 -26 44 -48 50 -49
13 -4 84 90 84 111 0 9 -14 102 -31 206 l-31 189 31 35 c17 20 31 41 31 48 0
16 -62 47 -93 47 -12 0 -37 -9 -54 -20z"></path>
<path style="position: relative;" class="node" id="node4" d="M777 1529 c-55 -13 -113 -45 -162 -90 -84 -78 -90 -91 -190 -419 -25
-85 -57 -189 -71 -230 -13 -41 -24 -81 -24 -88 0 -9 32 -12 125 -12 108 0 126
2 134 18 5 9 26 78 46 152 65 234 54 210 98 210 32 0 38 -3 34 -17 -3 -10 -19
-63 -35 -118 -60 -198 -69 -234 -64 -240 6 -6 862 -7 862 -1 0 3 -11 40 -24
83 -13 43 -36 119 -50 169 -14 50 -28 99 -32 108 -5 13 1 16 29 16 20 0 39 -5
43 -12 6 -10 33 -98 92 -303 l17 -60 128 -3 c70 -1 127 1 127 5 0 6 -37 130
-116 393 -69 227 -83 257 -141 321 -37 39 -77 70 -121 91 -59 29 -75 33 -151
33 -78 0 -86 -2 -89 -20 -2 -11 -15 -35 -29 -53 l-25 -34 30 -206 31 -206 -67
-79 -66 -80 -34 39 c-19 21 -49 57 -67 79 l-34 40 20 145 c10 80 23 172 27
206 8 58 7 63 -20 95 -15 18 -28 44 -28 56 0 22 -3 23 -82 22 -46 -1 -100 -5
-121 -10z"></path>
</g>
<g transform="translate(0.000000,300.000000) scale(0.100000,-0.100000)" fill="#ABABAB" stroke="none">




</g>
</svg>